<svg xmlns="http://www.w3.org/2000/svg"
     width="600" height="600" viewBox="0 0 600 600">
  <defs>
    <linearGradient id="mg" x1="0%" y1="0%" x2="100%" y2="100%">
      <stop offset="0%"   stop-color="#D97A32"/>
      <stop offset="100%" stop-color="#5F8A3B"/>
    </linearGradient>
  </defs>
  <rect width="600" height="600" fill="none"/>
  <g transform="scale(0.478469)">
    <path d="M587,69c-8.67.83-9.67,2-16,4s-13,4-22,8-22.17,10.67-32,16c-9.83,5.33-11.5,5.67-27,16s-51.83,36.67-66,46-13.33,7.67-19,10-4.83,2-15,4-33.5,4.83-46,8-21.67,7.67-29,11-10.83,6.17-15,9-6,4.17-10,8-10.17,10.33-14,15-5.5,6.83-9,13c-3.5,6.17-8.67,16-12,24s-5.83,16.33-8,24-2.67,8.5-5,22-6.5,46.33-9,59-4,12.5-6,17-3,5.83-6,10,2.67-.5-12,15-62.05,62.68-75.55,77.51c-2.21,3.74-3.28,5.32-5.45,11.49-2.17,6.17-5.67,16.33-8,26s-4.83,20-6,32-1.17,30-1,40,.83,12.33,2,20,3,17.5,5,26,4.33,16.83,7,25,8.33,16.17,9,24-3.67,14.5-5,23-2.5,19.5-3,28-.33,16.17,0,23,1,12.17,2,18,1.67,9.83,4,17,6.83,19,10,26,5.17,10.17,9,16,7.17,11.17,14,19,17.5,19.33,27,28,20.17,16.67,30,24,22.17,14.67,29,20,8.83,7.67,12,12c3.17,4.33,5.17,6.67,7,14s2.17,21,4,30,4.83,18,7,24,4,8.67,6,12,2.83,4.5,6,8,9,9.5,13,13,5,4.5,11,8,16.5,9.33,25,13,16.33,6.17,26,9,17.67,5.17,32,8,36.83,5.67,54,9,37,8,49,11,8.33,1.67,23,7c14.67,5.33,46.5,18.5,65,25s32,10.5,46,14,28.33,5.67,38,7,16.5.67,20,1-6.67.83,1,1,32,.67,45,0,23.67-2.5,33-4,14-2.5,23-5,21.83-6.5,31-10,15.17-6.17,24-11,20.67-12.17,29-18,14.67-11.33,21-17,10.83-9.83,17-17,15.5-20.5,20-26,4.67-5.17,7-7-.5-1,7-4,28-9.83,38-14,15.17-7.17,22-11,14.17-8.67,19-12c4.83-3.33,5.17-3.5,10-8s14.17-13.67,19-19,6.5-7.83,10-13,7.17-10.67,11-18,8.67-17.67,12-26,5.33-14.83,8-24,5.17-16.17,8-31,6.5-36.67,9-58,3.83-54.17,6-70,4.67-18.5,7-25,4.67-8.5,7-14,4.83-11.17,7-19,4.83-18.33,6-28,1.17-22,1-30-.83-11.67-2-18-3.17-14.33-5-20-5.83-5.17-6-14,4.5-26.33,5-39-1.17-28.67-2-37c-.83-8.33-1.33-7.83-3-13s-4-11.5-7-18-6.83-13.83-11-21-7.83-13.17-14-22-15.33-21.33-23-31-10-12.83-23-27-44.5-46-55-58-4.5-5.5-8-14-8.83-26.83-13-37-6.5-15-12-24-14.17-21.83-21-30-12.5-13.33-20-19-17-11.17-25-15-13.33-5.5-23-8-20.67-4.67-35-7-38.67-5-51-7-13.5-2.5-23-5-24.17-6.67-34-10-17.17-6.5-25-10-12.5-5.33-22-11-25.17-17.5-35-23-17.5-7.83-24-10-6.5-2.67-15-3-27.33.17-36,1ZM846,1028c1.5,4.67,3.33,10.5,4,17s.33,16.33,0,22-1,8-2,12-2.33,8.17-4,12-3,7.17-6,11-7.33,8.67-12,12-10.17,5.67-16,8-11.67,4.17-19,6-15.83,3.67-25,5-20,2.5-30,3-19.83.5-30,0-22.17-1.83-31-3-15-2.5-22-4-13.33-3-20-5-16.83-5.67-20-7-2.83-.83,1-1,15.67.33,22,0,6,0,16-2,31.67-6.5,44-10,21.33-7.33,30-11,14.83-6.67,22-11,15.33-10.17,21-15,9.83-9.83,13-14,4.67-8.17,6-11,1.67-2.83,2-6,.5-9.67,0-13-1.67-4.83-3-7-2.17-4-5-6-7.5-4.83-12-6-10-1.5-15-1-11.17,2.5-15,4-6.5,4.33-8,5-2.17.67-1-1,4.67-6.5,8-9,6.83-4.17,12-6,14-4.17,19-5,9,.17,11,0-2.17-1,1-1,12.5.17,18,1,10.67,2.33,15,4,7.67,3.67,11,6,6.5,5.33,9,8c2.5,2.67,4.17,4.83,6,8s3.5,6.33,5,11ZM1088,852c2-.17,3-3.67,1,5s-8.67,34.33-13,47-8.17,20.17-13,29-10.83,17.33-16,24-8.5,10.33-15,16-15.5,12.67-24,18-18.33,10.17-27,14c-8.67,3.83-20.67,8-25,9s-1.67.83-1-3,4.17-11.33,5-20,1-21.83,0-32-2.33-16-6-29-12.83-36.83-16-49-2.83-16.33-3-24,1.17-16.67,2-22,1.5-6.33,3-10,4.67-9.67,6-12,1.5-1.83,2-2,1.17-.5,1,1-1.67,4.33-2,8-.33,10.5,0,14,.67,4,2,7,2.83,7.17,6,11,7.67,8.67,13,12,13.67,6.33,19,8,7.67,1.67,13,2,13.33.33,19,0,8.67-.67,15-2c6.33-1.33,15.83-3.67,23-6s14.83-5.67,20-8,9-5.83,11-6ZM370,820c5.17-4.17,10.17-7,15-9s9.33-2.67,14-3,9.33-.17,14,1,10.83,4.33,14,6,4.33,3.17,5,4,1.83,1-1,1-12-1.17-16-1-4.67.5-8,2-8.5,4-12,7-6.67,7-9,11-4,8.33-5,13-1.33,9.83-1,15,1.5,10.67,3,16,2.83,9.5,6,16,8.17,15.17,13,23,8.33,13.17,16,24,20.5,28.67,30,41,15.17,20.17,27,33,32.5,33.33,44,44,17.67,14.67,25,20,16,9.83,19,12,4,2.5-1,1-16.67-6.33-29-10-26.33-8-45-12-47.83-8.17-67-12-37.5-8.33-48-11-9.17-2.67-15-5-14-5.67-20-9-11.67-7.33-16-11-7-6.67-10-11-6-9.5-8-15-3.5-9.5-4-18-.33-22.67,1-33,3.83-19,7-29,7.17-20.67,12-31,11.33-22,17-31,11.5-16.5,17-23,10.83-11.83,16-16ZM153,731c1.5,2.33,3.83,12.17,7,20s7.83,18.67,12,27,5,10.5,13,23,25,36.17,35,52,21,35.5,25,43,3.17,4.67-1,2-16.67-12-24-18-13.5-11.33-20-18-13.67-14.83-19-22-9.33-14-13-21-6.5-13.5-9-21-4.67-17.33-6-24-1.67-9.83-2-16-.33-16.5,0-21,.5-8.33,2-6ZM808,589c8.5,3.17,17.17,7.83,25,12s9.67,4.83,22,13,33.83,22.67,52,36,42.67,32,57,44,21.67,20.17,29,28,10.83,12.83,15,19,7.67,13.17,10,18,3,7.67,4,11,1.67,4.17,2,9,.5,15,0,20-1.5,6.67-3,10-4,7.5-6,10-4.33,3.83-6,5-1.67,1.67-4,2-8,.33-10,0-3-.5-2-2,5.83-4.5,8-7,3.67-5.17,5-8,2.33-5.67,3-9,1.67-6.5,1-11-2.67-11.67-5-16-5.67-7.5-9-10-7.17-4.17-11-5-7.5-1-12,0-10,2.83-15,6-11.33,9.33-15,13-4.17,4.5-7,9-7.17,12-10,18-5,11.83-7,18-3,8.17-5,19-5.17,35.83-7,46-1.83,9.67-4,15-5.5,12-9,17-7.67,9.17-12,13-9,7-14,10-9.33,5.33-16,8-15,5.67-24,8-17.17,4.33-30,6-34.5,2.17-47,4-20.5,4.33-28,7-12,5.5-17,9-9.67,8-13,12-5.5,8.83-7,12c-1.5,3.17-1.67,3.67-2,7s-.83,8.83,0,13,2.17,8.33,5,12,7.83,7.67,12,10,8.33,3.5,13,4,10.67,0,15-1,9-4.5,11-5,2,.33,1,2-3.33,5.17-7,8-9.67,6.67-15,9-11.83,3.83-17,5-7.5,1.67-14,2-16,.83-25,0-18.67-2.17-29-5-21.67-6.83-33-12-21.67-10.5-35-19-30.83-20.83-45-32c-14.17-11.17-26.5-22.33-40-35s-34.5-34-41-41-.5-1.67,2-1,7.67,3.5,13,5,10.5,3.17,19,4,23.17,1.33,32,1,12.17-.83,21-3c8.83-2.17,19.83-5,32-10s26.67-12,41-20,29.33-17.33,45-28,34.67-24.83,49-36,25.67-20.67,37-31,22-21,31-31,16.33-19,23-29,13.33-23.5,17-31,3.5-8.17,5-14,3.33-14.17,4-21,.83-12.33,0-20-3-19-5-26-4.17-11-7-16-6.5-10.17-10-14-7.33-6.67-11-9-7.17-4-11-5-8.5-1.17-12-1-6.33,1-9,2-5.5,3.5-7,4-3.67,1.17-2-1,8.83-9.5,12-12,4.17-2.17,7-3,5.67-1.67,10-2,9-1.17,16,0,17.5,3.83,26,7ZM179,472c5.83-1.67,6.17,5.67,14,11s19.5,13.5,33,21,34,18,48,24,26,9.33,36,12,16.83,3.33,24,4,13,.5,19,0,11.5-1.5,17-3,11-3.5,16-6,9.67-5.5,14-9,8.5-7.5,12-12,6.83-10,9-15,3.5-9.67,4-15-.33-12.67-1-17-1.83-6.5-3-9-3.67-4.83-4-6,.33-2,2-1,5.83,4.67,8,7,3.33,3.67,5,7,4,6.17,5,13,1.5,20.17,1,28-1,8.83-4,19-10.5,30.5-14,42-5.33,19.33-7,27-2.67,9-3,19-.5,28.83,1,41,4.33,21.67,8,32,8.5,20.33,14,30,8.67,14.67,19,28,33.67,39.5,43,52,10,15.5,13,23,4.33,15.83,5,22,.17,9.83-1,15-3.17,11.33-6,16-6.83,8.83-11,12-9.83,5.5-14,7-7.5,1.67-11,2-6.67.33-10,0-6.5-.83-10-2-7.5-2.5-11-5-8-7.67-10-10-1.83-2.33-2-4-.5-6.17,1-6,5.17,5.17,8,7,5.33,3.17,9,4,9,1.33,13,1,8-1.83,11-3,4.5-2,7-4,6-5.5,8-8,2.83-4,4-7,2.5-7.67,3-11,.33-5.83,0-9,0-5.17-2-10-5.67-13.17-10-19-9.5-11-16-16-14.67-10.17-23-14-19.5-7-27-9-11.83-2.5-18-3-15.67.17-19,0,2.5-1-1-1-3-.83-20,1-62.17,8.5-82,10c-19.83,1.5-29-.5-37-1s-6.33-.5-11-2-13-5-17-7-4.33-2.5-7-5-5.17-4.67-9-10-9-13-14-22-12-23.33-16-32-4.5-9.17-8-20-10-31-13-45-4.17-29-5-39-.67-12.5,0-21,1.5-18.67,4-30,8-30,11-38,2.33-4.83,7-10c4.67-5.17,15.17-19.33,21-21ZM1007,334c3.17,2.83,9.83,9.17,18,18,8.17,8.83,22.5,24.83,31,35s13.67,17.17,20,26,12.67,18,18,27,10.33,18.83,14,27,5.67,12.83,8,22c2.33,9.17,5.17,26,6,33s4.5,14-1,9-21.83-27.67-32-39c-10.17-11.33-21-21.5-29-29s-12.17-10.83-19-16-15.67-11.33-22-15-10.5-6-16-7-13,0-17,1-5.17,2.67-7,5-3.5,5.5-4,9,0,8.67,1,12,4.5,6.5,5,8-.67,1.83-2,1-4.5-4-6-6-2.5-3-3-6-.5-8.83,0-12-.33-1.83,3-7,12.83-17,17-24,5.67-11.33,8-18,4.67-16,6-22,1.67-8.83,2-14-.17-14,0-17-2.17-3.83,1-1ZM599,311c1,1.5,2.67,6.5,5,10s4.17,6.33,9,11,12.17,11.67,20,17,18.33,11.17,27,15,18.67,6.33,25,8,4.67,1.83,13,2,22.5,1.17,37-1,37.33-9.33,50-12,15.33-3.5,26-4,26.83-.17,38,1,20.17,3.67,29,6,16,4.67,24,8,21,9.5,24,12-3.67,1.17-6,3-6.33,6-8,8-1.17,1.17-2,4-2.67,8.17-3,13,0,10.5,1,16,3,11.67,5,17,4,9.67,7,15,6.67,11.5,11,17,10.33,11.83,15,16c4.67,4.17,7.67,6.33,13,9s13.17,5.83,19,7,11.67.5,16,0,7.5-2,10-3,2.83-1.17,5-3,6-5.5,8-8,3-4.5,4-7,1.67-5.33,2-8,.67-4.67,0-8-3.5-9.67-4-12-5.83-7.83,1-2,30.67,28,40,37,9.67,9.67,16,17,15.67,18.5,22,27,11.83,17,16,24,6.17,10.33,9,18,6.5,17.83,8,28,1.17,25.17,1,33-.67,8.17-2,14-2.83,13-6,21-6.33,15.83-13,27-17.67,27.33-27,40-24,30.17-29,36-1,7-1-1,1.17-36.83,1-47-.17-6.67-2-14-6.33-22.67-9-30-4.5-9.67-7-14-4.67-7.67-8-12c-3.33-4.33-7.83-9.67-12-14s-5-5.83-13-12-20.33-16.17-35-25-39.67-21.5-53-28-14.83-6.83-27-11-32.33-10.67-46-14-28-5-36-6-9.83.17-12,0,3.17-1-1-1-17,.33-24,1-11.5,1.17-18,3-15.33,5.17-21,8-9,5.33-13,9-8.33,9.17-11,13-3.83,7-5,10-1.83,4-2,8-.17,11.17,1,16,3.83,9.67,6,13,4.67,5.17,7,7,4.17,2.83,7,4,6.83,2.5,10,3,6.17.33,9,0,4.67-.33,8-2,9.83-7,12-8,1.33.17,1,2-1.17,6.17-3,9-5.33,6-8,8-5.17,3-8,4-5.83,1.67-9,2-5.83.67-10,0-11.67-2.83-15-4-2.67-1-5-3-6.5-5.83-9-9-4.33-5.5-6-10-3.33-11.17-4-17-1.17-7.67,0-18,5.67-33.17,7-44,.67-17.33,1-21,1,5.5,1-1-.5-29.17-1-38c-.5-8.83-.67-8.17-2-15s-3.17-17-6-26-6.5-19-11-28-11.17-19-16-26-6.17-8.5-13-16-21.5-21.67-28-29-8-9.33-11-15-5.83-14.17-7-19-.17-8.17,0-10,0-2.5,1-1ZM565,209c9.17.33,11.5,1.33,18,3s14.33,4.17,21,7,12.67,5.83,19,10,16,12.33,19,15,1.67,1-1,1-10.17-1.5-15-1-9.17,1.83-14,4-10.83,5.67-15,9-7.33,7.33-10,11-4.17,6.5-6,11-4,8.17-5,16-1.67,22.33-1,31,3.5,15.83,5,21,1.5,4.83,4,10,5.83,12.67,11,21,15.33,20.5,20,29,6,13.5,8,22,3.33,15.33,4,29,.17,44,0,53-1-8.67-1,1-.17,41.67,1,57,3.17,23.67,6,35,7.83,25,11,33,5,10.17,8,15,5.83,9.17,10,14,8.83,10.33,15,15,16.5,10.17,22,13,6,2.67,11,4,11.5,3.33,19,4,20,.33,26,0,6.33-.83,10-2,9.83-4.5,12-5,3.83-3,1,2-12.5,20.33-18,28-8.67,11.17-15,18-13.5,14.5-23,23-21.33,18.5-34,28-29.5,20.83-42,29-18.5,12-33,20-40.67,21.5-54,28-21.5,9.5-26,11-1.5-.17-1-2,3-5.67,4-9,1.67-4.67,2-11,.67-19.17,0-27-1.83-12.5-4-20-5.67-17-9-25-3.5-9.67-11-23-26.5-43.83-34-57-8-15.17-11-22-5-12-7-19-4-12-5-23-1.5-29-1-43,2.33-27.83,4-41,4.67-28.5,6-38,1.67-13.17,2-19-.17-13.17,0-16,1,3.33,1-1,.17-16.67-1-25-3.5-18.33-6-25-6.33-11.33-9-15-4.67-5-7-7-3.5-3.17-7-5-9.83-4.67-14-6-6.33-1.83-11-2-11.67,0-17,1-11,3.33-15,5-5.17,2-9,5-10.33,8.5-14,13-6.33,10.33-8,14-1.67,4.33-2,8-.83,9.67,0,14,3,8.83,5,12,3.67,5,7,7,9.33,4.5,13,5,7-1.83,9-2,4.17-.83,3,1-6.17,7.5-10,10-8.83,4.17-13,5-8.83.33-12,0-4-.17-7-2-8.67-6.67-11-9-2-2.5-3-5-2.5-5.67-3-10-.5-11,0-16,1.33-8.17,3-14,1.67-8.67,7-21,15.83-35.67,25-53,21.67-37.83,30-51,14.33-20.5,20-28,7.67-10.17,14-17,18.33-18.67,24-24,4.83-4.33,10-8c5.17-3.67,14.83-10.33,21-14s8.17-5.17,16-8,19.67-7.33,31-9c11.33-1.67,27.83-1.33,37-1ZM523,188c1.33,1.5-16.33,2.83-24,5s-15.67,5.33-22,8-9.17,4-16,8-10.83,5.17-25,16-37.83,29.83-60,49-52,46.5-73,66-44,42.67-53,51-1.33.17-1-1,1.5-1.5,3-6,3.83-8.67,6-21,4.33-38.33,7-53c2.67-14.67,6-25.83,9-35s6.33-14.83,9-20,2.17-5.5,7-11,16.5-17.17,22-22,7-4.83,11-7,6.83-3.67,13-6,10.33-4.67,24-8,40.67-9.17,58-12,33.83-4.17,46-5,17.17-.67,27,0,30.67,2.5,32,4ZM702,351c3-.83,12.5-1.83,19-4s13.83-5.5,20-9,11.5-7.33,17-12,11.5-11,16-16,6.67-7.5,11-14,11-17.67,15-25,5.33-9.83,9-19,9.5-27,13-36,4.67-12.67,8-18,8.5-10.83,12-14,5.83-3.67,9-5,5-2.5,10-3,15.17-.33,20,0,4.83.67,9,2,11.17,3.67,16,6,7.83,3.5,13,8,12.67,12.17,18,19,9.17,13.33,14,22c4.83,8.67,11,20.67,15,30s7,18.33,9,26,2.5,10.67,3,20,.83,24.67,0,36-3.17,24-5,32-4.33,15-6,16-2.33-6.83-4-10-2.83-5.33-6-9-9.5-9.83-13-13-2.17-2.67-8-6-17.5-10.33-27-14-22.33-6.33-30-8-6.5-1.83-16-2-28.33-.17-41,1-21.17,3-35,6-37.5,9.67-48,12-9,1.67-15,2-17.33.17-21,0-4-.17-1-1ZM465,161c8.5-5.67,35.33-23.5,52-33,16.67-9.5,35.67-18.5,48-24s19-7,26-9,10-2.5,16-3,14-.67,20,0,11.33,2.33,16,4,8.17,3.67,12,6,5.33,2.83,11,8,15,13.83,23,23,18.83,23.67,25,32,6.33,8.17,12,18,17.17,31.17,22,41,5,11.5,7,18,4.17,15.17,5,21,.33,10.33,0,14-.33,4.33-2,8-4.83,9.83-8,14-5.83,7.17-11,11-14.67,9.33-20,12-8,3-12,4-7.17,1.83-12,2-12.17-.17-17-1-8.67-2.5-12-4-5.83-3.33-8-5-4.5-4-5-5,0-1.5,2-1,6.33,3.33,10,4,8.5.67,12,0,6-1.5,9-4,7.33-6.67,9-11,2-9.67,1-15-4.33-12-7-17-2-5.33-9-13-24.67-25.33-33-33-10.5-8.5-17-13-14.83-9.83-22-14-13.5-7.5-21-11-16.83-7.33-24-10-11.83-4.17-19-6-17.33-3.83-24-5c-6.67-1.17-7-1.67-16-2s-31.5.17-38,0-9.5,4.67-1-1Z" fill="url(#mg)" fill-rule="evenodd"/>
  </g>
</svg>