<svg xmlns="http://www.w3.org/2000/svg" viewBox="0 0 500 500" width="500" height="500">
  <defs>
    <clipPath id="boundary">
      <circle cx="250.0" cy="250.0" r="215.0"/>
    </clipPath>
    <radialGradient id="glow" cx="50%" cy="50%" r="50%">
      <stop offset="0%"   stop-color="#1A1A18" stop-opacity="0.18"/>
      <stop offset="100%" stop-color="#1A1A18" stop-opacity="0"/>
    </radialGradient>
  </defs>
  <circle cx="250.0" cy="250.0" r="215.0" fill="#F5F4F1"/>
  <g clip-path="url(#boundary)">
    <path d="M 250.000,35.000 A 215.000,215.000 0 0,1 436.195,142.500 C 322.834,138.358 272.161,194.027 259.875,235.917 C 258.794,190.446 310.268,131.102 250.000,35.000 Z" fill="#1A1A18" opacity="0.72"/>
    <path d="M 436.195,142.500 A 215.000,215.000 0 0,1 436.195,357.500 C 383.102,257.255 309.554,241.206 267.133,251.511 C 305.973,227.839 383.102,242.745 436.195,142.500 Z" fill="#1A1A18" opacity="0.45"/>
    <path d="M 436.195,357.500 A 215.000,215.000 0 0,1 250.000,465.000 C 310.268,368.898 287.393,297.178 257.258,265.594 C 297.178,287.393 322.834,361.642 436.195,357.500 Z" fill="#1A1A18" opacity="0.72"/>
    <path d="M 250.000,465.000 A 215.000,215.000 0 0,1 63.805,357.500 C 177.166,361.642 227.839,305.973 240.125,264.083 C 241.206,309.554 189.732,368.898 250.000,465.000 Z" fill="#1A1A18" opacity="0.45"/>
    <path d="M 63.805,357.500 A 215.000,215.000 0 0,1 63.805,142.500 C 116.898,242.745 190.446,258.794 232.867,248.489 C 194.027,272.161 116.898,257.255 63.805,357.500 Z" fill="#1A1A18" opacity="0.72"/>
    <path d="M 63.805,142.500 A 215.000,215.000 0 0,1 250.000,35.000 C 189.732,131.102 212.607,202.822 242.742,234.406 C 202.822,212.607 177.166,138.358 63.805,142.500 Z" fill="#1A1A18" opacity="0.45"/>
    <circle cx="250.0" cy="250.0" r="215.0" fill="url(#glow)"/>
  </g>
</svg>